<?xml version="1.0" standalone="no"?>
<!DOCTYPE svg PUBLIC "-//W3C//DTD SVG 20010904//EN"
 "http://www.w3.org/TR/2001/REC-SVG-20010904/DTD/svg10.dtd">
<svg version="1.0" xmlns="http://www.w3.org/2000/svg"
 width="200.000000pt" height="200.000000pt" viewBox="0 0 200.000000 200.000000"
 preserveAspectRatio="xMidYMid meet">
<metadata>
Created by potrace 1.11, written by Peter Selinger 2001-2013
</metadata>
<g transform="translate(0.000000,200.000000) scale(0.100000,-0.100000)"
fill="#000000" stroke="none">
<path d="M1105 1900 c-3 -6 1 -7 9 -4 18 7 21 14 7 14 -6 0 -13 -4 -16 -10z"/>
<path d="M1164 1895 c-7 -17 4 -37 16 -30 5 3 11 1 15 -5 4 -6 11 -7 17 -4 7
5 8 2 3 -6 -5 -8 -4 -11 2 -7 6 4 13 0 17 -8 3 -8 0 -17 -6 -21 -7 -4 -8 -3
-4 4 7 11 -6 17 -27 13 -5 -1 -6 3 -3 8 4 5 2 12 -4 16 -5 3 -10 0 -10 -7 0
-8 -5 -6 -11 5 -6 9 -14 15 -19 12 -5 -3 -12 0 -16 6 -4 7 -3 9 3 6 5 -3 10 0
10 8 0 11 -5 10 -25 -3 -19 -12 -25 -13 -32 -3 -6 10 -12 10 -29 2 -11 -7 -21
-14 -21 -17 0 -2 9 0 19 5 14 8 22 7 31 -3 9 -12 7 -13 -11 -9 -15 4 -20 2
-15 -5 3 -6 1 -14 -5 -18 -8 -4 -9 -3 -5 4 5 8 -1 12 -16 12 -13 0 -30 6 -38
13 -12 10 -12 9 -1 -6 12 -15 11 -17 -5 -14 -11 1 -26 7 -34 12 -9 5 -8 0 4
-13 15 -17 22 -19 38 -11 15 8 23 8 32 -2 8 -9 8 -10 -1 -5 -18 10 -42 -4 -36
-22 3 -11 2 -13 -4 -5 -4 6 -15 13 -23 15 -8 2 -21 10 -27 18 -11 13 -12 12
-6 -4 5 -14 3 -17 -7 -11 -9 5 -11 4 -6 -3 4 -7 1 -12 -9 -12 -9 0 -13 5 -10
10 3 6 2 10 -3 10 -6 0 -13 -7 -16 -16 -3 -8 -2 -13 2 -10 4 2 9 -5 9 -16 2
-20 1 -20 -12 -2 -8 11 -15 25 -15 32 0 9 -7 11 -22 6 l-23 -7 20 24 20 24
-22 -19 c-13 -11 -23 -16 -23 -11 0 4 -7 2 -15 -5 -11 -9 -18 -10 -28 -1 -8 6
-17 7 -22 3 -4 -4 -2 3 4 16 13 24 26 30 18 7 -4 -8 -2 -17 3 -20 13 -8 20 9
10 25 -10 16 -50 21 -44 5 3 -6 -4 -19 -15 -29 -19 -17 -19 -17 -16 1 1 10 8
17 16 15 9 -2 10 0 1 11 -7 8 -10 16 -7 19 3 2 -2 5 -10 5 -11 0 -12 -4 -5
-11 7 -7 0 -14 -21 -23 -30 -12 -33 -11 -56 14 -18 21 -22 23 -17 8 7 -18 6
-19 -12 -5 -18 14 -18 14 -5 -2 7 -10 18 -15 24 -11 6 3 7 1 3 -5 -4 -7 -2
-12 5 -12 7 0 9 -3 6 -6 -4 -4 -13 -1 -21 5 -10 8 -16 9 -21 1 -3 -5 -1 -10 5
-10 7 0 6 -5 -2 -14 -11 -11 -15 -11 -25 3 -6 9 -15 12 -19 8 -5 -4 -2 -13 6
-18 12 -9 11 -10 -4 -5 -14 5 -17 2 -12 -10 5 -13 4 -14 -7 -6 -8 7 -18 8 -22
4 -5 -4 -6 0 -3 9 4 9 1 16 -6 16 -7 0 -13 -9 -13 -19 -1 -10 2 -16 8 -13 5 4
9 1 9 -5 0 -6 5 -8 13 -4 8 5 7 2 -2 -9 -13 -16 -15 -16 -31 -2 -14 12 -20 13
-26 4 -4 -7 -3 -10 4 -5 6 3 13 2 17 -4 3 -5 3 -10 -2 -10 -4 0 -17 -13 -28
-28 -17 -25 -17 -26 -1 -12 18 14 18 13 13 -10 -4 -14 -4 -19 -1 -12 3 6 10
12 16 12 6 0 5 -6 -2 -15 -9 -11 -16 -12 -25 -5 -10 8 -15 8 -21 -1 -4 -8 -3
-9 4 -5 7 4 13 2 13 -3 3 -21 4 -26 12 -38 4 -6 3 -14 -2 -17 -12 -8 -19 4
-16 27 2 9 0 17 -5 17 -12 0 -9 -54 3 -62 12 -8 -9 -38 -26 -38 -6 0 -2 6 8
14 18 13 18 14 -6 26 -22 12 -23 12 -10 -3 15 -19 2 -24 -16 -6 -8 8 -13 7
-18 -2 -6 -8 -4 -10 5 -4 10 6 12 4 7 -9 -5 -11 -3 -15 5 -10 6 4 8 3 4 -4 -3
-5 0 -13 6 -15 10 -4 10 -6 0 -6 -7 -1 -10 -6 -6 -13 4 -7 3 -8 -5 -4 -6 4 -8
12 -5 18 4 6 1 8 -7 6 -8 -3 -13 -11 -11 -17 1 -7 -2 -10 -7 -7 -5 4 -12 2
-16 -4 -4 -6 -11 -7 -17 -4 -8 5 -9 1 -4 -12 5 -14 4 -16 -5 -7 -13 13 -3 36
13 27 7 -5 8 -2 3 6 -5 8 -4 11 3 6 6 -3 15 2 21 12 7 14 6 19 -4 19 -8 0 -11
-7 -7 -16 3 -9 1 -13 -3 -8 -5 4 -17 -1 -28 -10 -15 -13 -21 -15 -24 -5 -3 6
-9 12 -14 12 -6 0 -7 -5 -4 -10 3 -6 -1 -13 -9 -16 -9 -3 -16 -14 -16 -23 0
-12 2 -13 9 -3 4 8 12 14 17 15 5 1 8 6 6 12 -2 5 0 6 4 2 13 -12 13 -34 0
-34 -6 0 -15 -2 -21 -3 -22 -5 -36 1 -30 13 4 6 -2 2 -13 -10 -15 -17 -22 -19
-33 -10 -11 10 -11 9 0 -5 7 -10 18 -15 24 -11 6 3 7 1 3 -5 -4 -7 -2 -12 5
-12 7 0 9 -3 6 -6 -4 -4 -17 1 -31 9 -24 16 -25 16 -21 -3 3 -14 -2 -20 -13
-20 -14 0 -15 -2 -3 -9 10 -7 19 -5 26 6 10 13 14 13 20 3 5 -9 4 -11 -3 -6
-7 4 -12 2 -12 -3 0 -6 6 -11 12 -11 7 0 3 -7 -9 -15 -12 -9 -21 -21 -19 -28
1 -6 1 -9 -1 -4 -3 4 -10 4 -16 0 -7 -3 -4 3 6 14 14 17 15 22 4 26 -7 3 -14
0 -15 -6 0 -7 -3 -24 -5 -40 -3 -18 1 -31 12 -37 14 -8 14 -9 -1 -10 -12 0
-15 -5 -11 -17 4 -9 2 -14 -3 -10 -6 3 -11 -4 -11 -16 -2 -17 0 -19 7 -7 11
17 12 13 12 -43 1 -15 3 -25 6 -22 3 2 11 0 19 -6 10 -9 11 -15 1 -26 -6 -8
-7 -13 -2 -12 30 5 44 -26 20 -44 -7 -6 -4 -7 6 -3 18 5 24 -5 11 -18 -4 -3
-8 -13 -9 -20 -2 -15 20 -16 33 -1 4 4 3 5 -4 1 -8 -4 -11 0 -8 15 2 12 0 29
-5 39 -6 12 -5 17 5 17 7 0 11 -7 7 -15 -3 -9 -1 -13 5 -9 5 3 10 0 10 -8 0
-8 -5 -15 -11 -15 -6 0 -2 -7 8 -15 12 -9 15 -15 7 -15 -11 0 -11 -3 0 -17 13
-17 13 -17 -5 -3 -18 14 -19 13 -13 -4 6 -16 5 -17 -7 -7 -18 15 -34 -5 -17
-22 9 -9 10 -7 5 8 -4 11 -5 18 -3 15 33 -39 42 -53 27 -42 -19 15 -31 2 -22
-25 5 -17 5 -17 -6 0 -6 9 -9 21 -6 25 3 5 -1 9 -9 9 -9 0 -11 -5 -6 -16 5 -9
7 -26 5 -39 -3 -16 0 -21 8 -16 7 4 8 3 4 -5 -4 -6 -12 -9 -17 -6 -5 4 -9 -1
-9 -9 0 -10 -6 -13 -17 -10 -11 4 -14 3 -7 -3 19 -14 35 -51 25 -58 -5 -3 -13
0 -17 6 -5 8 -3 9 6 4 9 -6 11 -4 6 4 -9 14 -19 7 -22 -14 -1 -8 2 -13 6 -10
5 3 11 1 15 -5 3 -5 1 -10 -5 -10 -7 0 -6 -8 4 -22 11 -15 12 -27 5 -42 -10
-20 -9 -20 5 -2 12 15 13 23 4 39 -8 16 -8 22 1 25 6 2 8 9 5 14 -5 7 -2 8 5
3 8 -5 9 -11 3 -17 -6 -6 -6 -20 1 -39 10 -24 8 -31 -8 -44 -19 -16 -19 -16 2
-6 14 7 24 8 28 1 3 -5 1 -10 -4 -10 -6 0 -11 -4 -11 -9 0 -5 8 -8 17 -6 10 1
27 -2 37 -7 16 -9 18 -8 12 8 -6 15 -5 16 5 7 10 -10 9 -16 -2 -29 -8 -10 -9
-15 -3 -11 12 7 64 17 64 13 0 -2 -8 -10 -17 -17 -11 -9 -14 -10 -9 -2 5 9 2
11 -9 6 -13 -4 -14 -8 -4 -13 7 -5 19 -6 27 -2 11 4 13 1 7 -9 -5 -8 -5 -11 1
-6 5 5 10 13 10 18 1 5 2 14 3 19 0 6 6 10 12 10 8 0 8 -5 -1 -15 -9 -10 -9
-15 -1 -15 6 0 11 -5 11 -11 0 -5 -5 -7 -12 -3 -7 5 -9 2 -5 -9 4 -11 1 -15
-13 -12 -11 2 -19 -1 -17 -7 1 -6 -4 -13 -12 -16 -9 -3 -11 0 -6 8 5 8 4 11
-3 6 -6 -4 -8 -14 -5 -24 3 -9 3 -14 -1 -10 -4 3 -16 -1 -26 -10 -27 -25 -41
-35 -85 -65 -22 -15 -35 -27 -30 -27 5 0 0 -7 -11 -15 -10 -8 -14 -15 -9 -15
6 0 4 -4 -3 -9 -20 -12 -17 -66 6 -93 6 -8 9 -18 5 -21 -3 -4 1 -7 10 -7 10 0
17 -4 17 -8 0 -5 6 -9 13 -9 6 0 21 -4 31 -9 12 -4 17 -4 13 2 -3 6 7 9 24 8
18 -1 27 2 22 9 -4 6 0 8 11 4 11 -5 15 -3 10 5 -5 8 -2 9 10 5 9 -4 15 -3 13
1 -2 4 9 19 24 34 16 15 29 24 29 20 0 -4 11 6 24 21 15 18 30 26 37 21 8 -5
10 -2 6 8 -4 11 3 20 24 28 16 7 27 16 24 20 -2 4 7 12 20 18 14 7 25 16 25
22 0 5 6 9 13 7 6 -1 11 3 10 9 -1 7 5 11 15 10 12 -1 16 5 14 19 -2 17 -1 17
8 5 8 -12 11 -13 19 -1 11 18 22 0 23 -39 1 -18 5 -27 12 -23 6 4 3 -3 -8 -15
-10 -12 -24 -19 -30 -15 -6 3 -7 2 -3 -3 5 -5 12 -9 15 -9 4 0 13 -4 21 -9 9
-6 12 -5 8 0 -3 6 -2 16 3 24 5 9 8 -2 6 -28 -2 -36 0 -42 15 -37 9 3 20 1 24
-4 4 -7 -1 -8 -11 -4 -13 5 -15 3 -9 -7 5 -7 4 -11 -1 -8 -5 3 -17 -4 -27 -14
-17 -18 -17 -19 0 -16 19 3 26 -22 8 -34 -5 -4 0 -6 12 -6 15 2 20 8 17 21 -3
16 -1 17 12 7 10 -9 11 -16 4 -25 -5 -6 -6 -15 -2 -20 4 -4 -4 -4 -18 -1 -22
6 -23 6 -6 -5 16 -10 22 -9 33 7 11 15 15 16 26 4 10 -10 9 -11 -1 -5 -9 4
-15 0 -19 -14 -3 -11 -9 -19 -13 -16 -5 3 -11 1 -14 -4 -7 -11 13 -9 32 3 8 5
19 3 25 -3 9 -9 8 -11 -6 -5 -13 5 -16 2 -11 -10 4 -11 2 -15 -7 -13 -8 2 -11
2 -6 0 4 -3 4 -10 0 -16 -4 -7 1 -5 11 3 25 20 46 22 39 3 -4 -10 -8 -11 -13
-3 -5 8 -9 6 -14 -6 -3 -9 -4 -19 -1 -22 3 -3 5 -1 5 4 0 5 11 10 25 10 14 1
23 -2 20 -7 -3 -4 4 -13 15 -19 17 -9 20 -8 21 7 0 14 2 15 6 3 3 -8 10 -18
15 -21 5 -3 2 -9 -7 -12 -11 -5 -14 -3 -9 6 4 6 3 9 -1 4 -5 -4 -19 0 -32 8
-13 9 -23 12 -23 7 0 -5 12 -14 26 -20 14 -7 23 -16 20 -20 -3 -5 1 -9 9 -9 8
0 12 4 9 9 -3 4 4 8 14 8 15 0 19 5 16 22 -4 21 -4 21 4 3 5 -11 7 -26 5 -32
-3 -7 0 -13 6 -13 6 0 11 7 11 15 0 9 6 12 17 8 9 -4 14 -2 10 3 -3 6 3 11 14
11 25 2 20 -19 -5 -23 -28 -4 -29 -11 -1 -11 14 0 25 4 25 9 0 5 5 6 12 2 7
-5 9 -2 6 7 -3 8 1 20 9 28 13 12 14 11 8 -8 -6 -21 -5 -22 14 -12 16 9 21 9
21 -1 0 -6 7 -3 15 8 17 23 20 45 2 24 -16 -19 -34 -23 -34 -6 0 7 7 13 16 12
9 -1 15 4 14 11 -2 7 4 10 12 7 8 -4 15 -11 15 -17 0 -14 15 2 15 16 1 7 -4
15 -10 19 -7 5 -7 8 1 8 5 0 19 -7 30 -15 19 -15 19 -15 -1 -8 -11 3 -17 3
-14 -1 4 -4 22 -9 40 -11 19 -2 28 -1 22 2 -16 6 -17 33 -2 33 5 0 7 -5 3 -12
-5 -8 -2 -9 10 -5 13 5 17 3 13 -6 -7 -17 41 -16 52 1 7 11 9 11 14 -2 4 -10
13 -13 24 -9 16 6 16 4 -1 -16 -17 -19 -17 -21 -3 -15 13 5 16 2 11 -12 -3
-11 -2 -15 3 -9 12 15 47 19 37 4 -5 -8 -3 -10 6 -4 9 6 12 4 8 -7 -4 -8 -1
-15 7 -15 7 0 11 6 8 12 -2 8 5 12 19 11 13 -1 22 -7 20 -15 -1 -7 2 -10 8 -6
16 10 -9 37 -27 31 -8 -3 -11 -1 -8 4 3 6 1 10 -4 10 -6 0 -11 -5 -11 -11 0
-8 -4 -8 -14 0 -8 6 -18 10 -22 9 -5 -2 -9 2 -9 7 0 6 5 8 10 6 6 -2 21 -5 35
-7 14 -1 34 -4 45 -6 11 -2 19 2 18 8 -3 18 36 9 52 -12 15 -19 15 -19 8 1 -3
11 -11 27 -17 35 -6 8 2 4 18 -10 27 -24 28 -24 17 -3 -10 19 -9 22 4 17 8 -4
15 -11 15 -17 0 -6 7 -1 16 11 9 13 20 19 27 15 7 -4 4 5 -6 20 -9 15 -13 27
-8 27 6 0 15 -8 20 -17 6 -11 11 -13 11 -5 0 7 4 11 8 8 5 -3 8 9 7 27 0 20
-5 31 -13 29 -9 -1 -7 6 4 23 9 14 20 22 25 19 5 -3 9 -1 9 5 0 6 8 8 18 5 13
-5 14 -4 3 4 -8 6 -19 9 -25 8 -6 -1 -1 2 11 8 12 5 25 16 28 24 4 12 3 13 -9
3 -11 -9 -20 -10 -33 -2 -11 6 -13 11 -5 11 7 0 11 4 7 9 -3 6 4 8 15 6 12 -2
27 -2 35 1 12 5 12 8 0 21 -8 8 -15 20 -15 26 0 8 4 7 9 -2 5 -8 16 -11 25 -8
14 5 15 11 6 27 -6 11 -8 20 -6 20 12 0 27 -42 19 -54 -4 -6 -1 -4 8 6 9 9 20
14 24 10 5 -4 5 -1 1 6 -4 7 -12 10 -17 7 -5 -4 -9 -1 -9 5 0 7 7 10 15 6 8
-3 21 4 30 17 8 12 15 16 15 9 0 -8 5 -10 12 -6 7 4 8 3 4 -5 -4 -6 -12 -9
-17 -6 -5 4 -6 -2 -2 -11 4 -11 8 -13 11 -6 2 7 7 10 11 8 12 -8 9 28 -2 36
-6 3 5 6 24 5 28 -2 33 -6 31 -22 -2 -16 -1 -17 7 -6 5 8 8 23 6 33 -2 10 1
18 7 18 6 0 9 3 5 6 -3 3 -12 2 -19 -2 -16 -11 -42 -15 -33 -6 4 4 12 7 18 7
7 1 11 6 10 13 -2 8 4 9 20 3 14 -6 21 -16 19 -27 -2 -15 -1 -16 7 -5 14 22 6
46 -15 43 -11 -2 -15 0 -8 5 6 4 10 18 9 30 -1 14 3 19 12 16 7 -3 13 0 13 6
0 6 -5 11 -11 11 -5 0 -7 5 -4 11 5 6 11 4 19 -7 10 -13 15 -14 21 -5 4 8 0
20 -10 29 -10 10 -15 11 -11 5 5 -9 2 -11 -9 -6 -13 4 -14 8 -4 14 7 4 16 6
20 3 4 -2 7 5 6 16 -1 18 -10 24 -29 21 -5 0 -8 4 -8 9 0 6 11 8 24 6 19 -3
23 -1 19 15 -3 10 -9 19 -14 19 -5 0 -7 -6 -5 -12 1 -7 1 -10 -1 -5 -3 4 -10
4 -15 1 -6 -4 -8 -2 -4 4 3 5 1 12 -6 14 -6 2 -12 12 -14 21 -1 9 2 15 7 11 5
-3 9 3 9 12 0 10 -3 14 -7 11 -7 -7 -38 32 -38 48 0 6 -5 10 -12 10 -6 0 -14
3 -17 8 -3 4 -3 5 1 2 3 -3 13 1 21 8 13 10 14 9 7 -3 -8 -13 -6 -13 8 -2 9 8
16 17 15 20 -2 21 4 32 15 27 6 -4 4 0 -5 8 -10 8 -14 18 -10 22 4 5 2 5 -4 2
-5 -3 -9 -19 -8 -35 2 -25 -1 -29 -19 -24 -16 4 -17 7 -6 11 16 7 24 31 9 31
-6 0 -10 5 -10 11 0 5 5 7 12 3 7 -5 9 -2 5 9 -3 8 1 21 8 27 8 7 13 24 11 40
-2 20 1 27 10 23 9 -3 12 2 9 16 -2 14 0 19 7 15 6 -4 9 -1 6 7 -3 8 -11 13
-17 11 -7 -1 -10 2 -6 8 3 6 11 8 16 5 5 -4 9 1 9 10 0 9 4 14 9 10 5 -3 13 0
17 6 4 8 3 9 -4 5 -7 -4 -12 -2 -12 5 0 7 -3 9 -7 6 -8 -8 -33 12 -33 26 0 6
7 2 15 -9 17 -22 19 -15 5 20 -5 14 -14 26 -20 26 -6 0 -8 -5 -4 -12 5 -7 3
-8 -5 -4 -7 5 -10 11 -7 14 3 3 1 11 -5 19 -9 9 -8 17 0 27 9 10 9 16 1 21 -6
4 -14 4 -17 1 -4 -3 0 -6 8 -6 11 0 11 -2 -1 -10 -18 -12 -40 -14 -25 -2 6 4
10 14 10 22 0 9 8 14 20 12 16 -2 17 -1 5 7 -8 5 -17 8 -21 5 -4 -2 -9 1 -12
8 -2 7 -3 6 -2 -3 2 -14 -6 -17 -40 -15 -24 0 -43 5 -42 11 1 5 -11 9 -26 9
-15 -1 -25 1 -22 4 10 10 64 9 58 -1 -4 -6 -1 -7 7 -2 9 6 11 4 5 -5 -5 -9 -4
-11 4 -6 6 4 9 11 6 16 -3 5 0 12 6 16 8 5 10 1 7 -13 -3 -12 0 -20 7 -20 8 0
11 7 8 16 -10 28 -14 31 -26 24 -21 -13 -68 -13 -61 0 5 8 2 8 -7 0 -7 -7 -18
-13 -23 -13 -6 1 0 10 13 20 13 11 19 20 13 20 -5 0 -16 -7 -23 -16 -7 -9 -24
-20 -37 -25 -18 -7 -22 -13 -14 -22 8 -10 5 -13 -14 -15 -13 -1 -24 3 -24 8 0
5 7 6 17 3 10 -4 14 -2 10 4 -4 6 8 24 26 40 18 15 27 24 20 19 -8 -5 -13 -4
-13 3 0 6 11 16 25 21 14 5 25 12 25 15 0 4 -6 3 -12 -1 -19 -10 104 106 130
123 12 9 22 20 22 25 0 5 -30 -11 -66 -37 -56 -39 -68 -44 -83 -33 -14 11 -14
11 -4 -2 9 -12 6 -19 -15 -35 -27 -19 -27 -19 -12 0 10 14 5 12 -15 -5 -17
-14 -31 -28 -33 -33 -2 -4 -8 -5 -13 -1 -5 3 -9 0 -9 -6 0 -6 -4 -8 -10 -5 -5
3 -10 1 -10 -4 0 -6 -7 -11 -16 -11 -8 0 -12 -5 -8 -11 4 -7 -2 -6 -17 2 -22
11 -23 11 -10 -4 9 -11 10 -17 2 -18 -6 -1 -17 -2 -23 -3 -7 0 -13 -7 -13 -13
0 -13 -16 -16 -25 -6 -3 4 1 3 9 -2 10 -6 12 -4 6 5 -5 9 -14 4 -32 -18 -13
-18 -30 -29 -37 -26 -9 3 -17 -3 -21 -15 -3 -12 -10 -19 -15 -16 -5 3 -14 -3
-20 -12 -9 -15 -10 -15 -4 6 4 17 3 21 -6 16 -8 -5 -11 -4 -7 3 4 5 17 8 30 5
20 -4 21 -3 5 10 -10 8 -18 18 -18 23 0 4 5 3 12 -4 7 -7 17 -12 22 -12 6 0 5
5 -2 12 -15 15 -16 28 -2 28 6 0 9 -5 8 -11 -2 -6 3 -14 11 -17 9 -3 11 0 6 8
-5 9 -4 11 3 6 7 -4 12 -1 12 9 0 10 -5 13 -12 9 -10 -6 -10 -5 -1 8 7 8 9 19
5 23 -4 5 -1 5 6 1 11 -7 16 4 13 31 -1 6 3 14 9 18 7 4 6 13 -1 28 -9 16 -9
22 0 25 6 2 11 8 11 13 0 6 -5 7 -12 3 -7 -4 -8 -3 -4 5 10 16 25 4 23 -19 -1
-10 -5 -16 -10 -13 -5 3 -4 -4 2 -14 6 -11 7 -24 3 -29 -4 -5 2 -2 13 6 30 22
32 24 12 17 -22 -8 -20 21 3 41 8 8 10 11 4 8 -7 -3 -17 1 -24 9 -7 9 -22 13
-34 10 -12 -3 -15 -2 -8 1 6 3 12 14 12 24 0 10 5 20 12 22 7 3 5 7 -6 11 -10
4 -15 3 -11 -3 3 -6 1 -10 -4 -10 -6 0 -11 5 -11 11 0 5 -5 7 -12 3 -7 -4 -8
-3 -4 4 4 7 2 12 -5 12 -7 0 -9 3 -6 6 4 4 14 1 24 -7 15 -12 16 -12 11 2 -4
9 -1 22 5 29 9 10 9 11 0 6 -7 -4 -13 -2 -13 3 0 13 -22 10 -32 -4 -5 -6 -8
-6 -8 1 0 6 8 18 17 25 9 8 14 9 11 4 -4 -6 2 -11 12 -11 18 0 21 19 5 33 -4
4 -5 3 -2 -3 4 -7 -3 -11 -18 -11 -19 0 -23 3 -15 12 5 6 6 16 2 20 -4 5 2 5
13 2 18 -7 19 -6 3 6 -10 8 -16 17 -13 20 3 4 2 4 -2 1 -5 -3 -9 -10 -9 -15
-1 -5 -2 -13 -3 -19 0 -5 -6 -10 -12 -10 -8 0 -8 4 0 14 8 10 9 16 1 21 -5 3
-10 0 -10 -7 0 -9 -3 -9 -10 2 -6 9 -6 18 0 24 19 19 10 29 -10 11 -19 -17
-19 -17 -7 8 7 16 17 23 27 19 8 -3 12 -2 8 2 -5 6 -14 9 -48 15 -3 1 0 5 6 9
8 5 7 11 -4 22 -14 13 -15 12 -9 -3 4 -12 1 -17 -9 -17 -10 0 -14 6 -10 15 3
8 0 14 -6 12 -7 -1 -12 3 -13 10 0 6 -4 15 -9 20 -5 5 -6 3 -2 -4 5 -9 -1 -12
-18 -11 -15 1 -26 8 -26 16 0 7 5 10 12 6 7 -4 8 -3 4 4 -10 16 -15 15 -22 -3z
m-34 -34 c0 -6 -4 -12 -8 -15 -5 -3 -9 1 -9 9 0 8 4 15 9 15 4 0 8 -4 8 -9z
m-280 -56 c5 3 10 1 10 -4 0 -6 -7 -11 -15 -11 -8 0 -15 -4 -15 -10 0 -5 -5
-10 -11 -10 -8 0 -8 5 1 15 9 10 9 15 1 15 -6 0 -11 5 -11 11 0 8 4 8 15 -1 8
-6 19 -9 25 -5z m425 4 c11 -16 1 -19 -13 -3 -7 8 -8 14 -3 14 5 0 13 -5 16
-11z m-312 -20 c4 -3 -6 -6 -22 -6 -27 0 -28 2 -13 13 9 7 19 9 22 6 3 -4 9
-9 13 -13z m-468 -87 c-3 -3 -11 0 -18 7 -9 10 -8 11 6 5 10 -3 15 -9 12 -12z
m589 -64 c-6 -10 10 -11 20 -1 11 12 36 12 43 1 3 -7 1 -8 -5 -4 -11 7 -17 -6
-13 -27 1 -5 -3 -6 -8 -2 -6 3 -7 13 -4 23 5 14 3 15 -7 5 -10 -10 -11 -15 -1
-27 12 -14 45 -11 36 3 -2 4 2 8 9 8 8 0 13 -7 11 -16 -4 -24 6 -35 17 -20 7
10 8 8 3 -6 -18 -49 -18 -55 -1 -49 9 3 16 1 16 -5 0 -6 -3 -10 -7 -10 -20 3
-26 -2 -13 -11 13 -9 13 -10 0 -10 -13 0 -13 -1 0 -11 13 -9 13 -10 0 -6 -8 2
-15 13 -14 24 1 11 -4 20 -11 20 -9 0 -10 -8 -5 -29 8 -25 7 -27 -11 -18 -10
6 -19 15 -19 21 0 6 5 7 12 3 7 -5 8 -3 3 5 -5 9 -10 10 -18 2 -8 -8 -4 -19
13 -38 14 -16 18 -22 10 -15 -17 14 -34 16 -25 2 3 -6 -1 -7 -9 -4 -9 3 -16 1
-16 -6 0 -6 -5 -8 -11 -4 -8 4 -7 9 2 15 11 7 11 9 -2 9 -9 0 -24 -10 -33 -22
-8 -13 -13 -16 -10 -7 3 10 1 20 -5 24 -6 3 -11 0 -11 -7 0 -10 -3 -9 -10 2
-7 12 -12 11 -32 -5 -17 -15 -20 -16 -9 -2 7 9 10 17 6 17 -4 0 -2 7 5 15 7 8
18 15 24 15 6 0 4 -5 -4 -11 -13 -9 -13 -10 2 -6 9 3 22 -1 29 -9 10 -12 14
-12 20 -2 5 7 9 18 9 23 0 6 -4 4 -9 -4 -8 -12 -11 -12 -25 1 -8 9 -12 19 -8
23 4 4 -2 3 -13 -2 -23 -11 -80 -11 -91 0 -4 4 -2 7 6 7 10 0 10 3 0 15 -9 11
-9 15 -1 15 6 0 14 -7 17 -15 4 -8 11 -15 17 -15 5 0 2 9 -8 20 -10 11 -13 20
-7 20 6 0 14 -4 17 -10 3 -5 10 -10 16 -10 9 0 -21 37 -31 37 -23 2 -30 4 -30
12 0 6 9 8 21 6 15 -3 19 0 15 11 -5 12 -2 12 16 3 19 -10 20 -9 14 7 -5 15
-4 16 5 7 13 -13 3 -36 -13 -27 -7 5 -8 2 -3 -6 6 -9 4 -11 -6 -5 -8 4 -6 0 3
-11 14 -15 20 -16 30 -5 11 10 9 11 -7 6 -19 -6 -18 -5 2 13 12 11 19 22 16
26 -4 3 -1 6 6 6 7 0 9 5 5 13 -4 6 -4 9 1 5 4 -4 15 -2 24 5 14 10 14 10 3
-4 -10 -14 -10 -18 3 -23 9 -3 13 -2 10 3 -3 5 -1 12 5 16 6 4 8 10 6 14 -3 4
1 8 9 8 8 0 12 -4 9 -9z m-395 -15 c-1 -5 -1 -14 0 -22 1 -16 16 -5 16 11 0 6
8 12 18 14 17 2 17 1 3 -15 -14 -15 -13 -18 5 -30 12 -7 18 -8 14 -2 -3 6 -1
11 4 11 6 0 11 5 11 11 0 8 -6 7 -17 -2 -15 -13 -15 -12 -2 8 12 21 14 21 23
5 5 -9 10 -18 12 -20 1 -2 13 2 26 9 12 6 20 8 16 4 -5 -5 1 -15 12 -22 17
-12 24 -12 35 -3 8 7 15 9 15 4 0 -5 5 -2 11 6 9 13 10 13 8 0 -3 -31 1 -39
19 -34 16 5 16 5 -1 -6 -18 -12 -41 -5 -32 10 3 5 1 11 -5 15 -5 3 -10 -1 -10
-9 0 -8 4 -17 10 -21 5 -3 7 -12 3 -20 -3 -8 0 -15 7 -15 6 0 8 5 5 10 -3 6
-1 10 5 10 7 0 10 -7 7 -15 -4 -8 -2 -17 2 -20 5 -2 11 -14 14 -25 3 -11 1
-18 -4 -14 -5 3 -9 12 -9 20 0 8 -5 12 -10 9 -6 -4 -8 -10 -5 -15 3 -4 -3 -7
-12 -5 -10 1 -28 -6 -39 -17 -14 -13 -24 -16 -29 -9 -3 6 -11 11 -17 11 -7 0
-6 -5 1 -14 8 -10 9 -16 1 -21 -6 -4 -9 -1 -8 7 2 7 -3 12 -9 11 -7 -2 -19 -4
-25 -5 -7 -2 -12 6 -11 16 1 16 -3 14 -21 -9 -18 -23 -26 -26 -41 -18 -18 11
-51 0 -66 -21 -4 -4 -10 -3 -13 3 -4 6 4 16 18 23 14 6 26 16 26 22 0 6 -5 5
-12 -2 -17 -17 -28 -15 -28 5 0 15 -15 10 -15 -5 -1 -16 -17 -32 -27 -26 -6 4
-8 2 -5 -3 4 -6 0 -16 -8 -23 -8 -7 -12 -16 -9 -21 8 -13 -10 -11 -25 4 -11
10 -12 9 -6 -2 6 -10 4 -12 -5 -6 -10 6 -11 4 -4 -6 4 -8 9 -20 10 -27 2 -8 6
-17 10 -20 4 -4 4 1 1 10 -7 20 25 43 46 33 6 -4 5 -1 -4 7 -14 12 -14 15 1
31 15 16 18 16 30 2 7 -9 10 -19 6 -22 -4 -4 -12 -1 -17 7 -9 12 -9 11 -4 -5
4 -11 7 -30 7 -42 -2 -31 15 -38 28 -11 11 22 10 22 -5 4 -15 -19 -15 -19 -13
6 2 23 5 25 25 15 17 -8 20 -13 11 -19 -7 -4 -8 -8 -3 -8 6 0 2 -5 -7 -10 -10
-6 -15 -19 -13 -30 2 -12 0 -18 -6 -15 -5 4 -7 10 -4 15 6 9 -25 23 -33 15 -3
-3 0 -5 6 -5 7 0 11 -3 11 -7 -1 -5 0 -11 1 -15 6 -20 5 -34 -4 -40 -11 -7
-18 -60 -7 -54 4 3 8 -1 8 -9 0 -18 -5 -19 -20 -2 -15 16 -21 40 -7 32 5 -3
10 -1 10 5 0 7 -5 10 -11 8 -6 -2 -11 -8 -11 -13 0 -6 -5 -16 -10 -23 -8 -9
-8 -16 1 -25 10 -9 11 -8 5 8 -7 20 -7 20 9 0 19 -24 12 -38 -12 -26 -21 12
-47 -2 -36 -20 6 -9 3 -11 -9 -6 -10 4 -20 7 -22 7 -2 0 -4 7 -4 16 0 8 5 12
10 9 6 -3 10 -1 10 5 0 7 -8 9 -22 4 -20 -6 -21 -5 -9 10 19 23 10 27 -11 4
-10 -10 -14 -18 -8 -18 5 0 7 -8 4 -17 -5 -16 -4 -16 6 -3 9 12 11 12 8 1 -7
-26 -25 -23 -30 4 -3 15 0 32 8 40 11 11 11 14 -1 19 -8 3 -23 3 -32 0 -11 -4
-14 -2 -8 3 9 7 12 27 5 36 -1 1 -3 9 -5 17 -2 8 -7 24 -11 35 -7 17 -6 18 8
5 9 -8 14 -23 12 -33 -1 -10 1 -15 7 -12 5 4 6 11 3 17 -5 8 -1 9 12 5 18 -7
18 -6 -1 9 -11 8 -19 21 -17 29 1 7 -5 16 -15 19 -11 3 -9 4 6 3 13 -1 26 4
29 12 3 9 0 11 -8 6 -8 -5 -11 -4 -6 3 4 6 14 8 23 5 12 -5 14 -3 8 7 -5 9 -4
11 4 6 6 -4 9 -11 6 -15 -2 -5 6 -13 19 -19 21 -10 23 -8 20 17 -2 20 4 35 23
52 14 13 23 18 18 10 -5 -9 -3 -12 6 -9 8 3 13 12 11 20 -1 9 5 18 13 22 9 3
13 11 9 17 -4 8 -3 9 4 5 7 -4 12 -2 12 3 0 6 7 11 15 11 8 0 15 -5 15 -11 0
-5 5 -7 10 -4 7 4 2 15 -12 27 -16 15 -18 19 -5 15 53 -20 53 -20 32 -3 -14
12 -16 19 -7 23 7 2 18 11 26 18 7 8 16 12 18 9 5 -4 3 41 -2 61 -3 14 -1 25
5 25 3 0 4 -3 4 -7z m101 -3 c0 -5 -2 -10 -4 -10 -3 0 -8 5 -11 10 -3 6 -1 10
4 10 6 0 11 -4 11 -10z m75 -20 c-3 -5 -12 -10 -18 -10 -7 0 -6 4 3 10 19 12
23 12 15 0z m-191 -19 c3 -5 -3 -20 -13 -32 -16 -20 -22 -22 -33 -11 -11 11
-10 12 6 6 13 -5 17 -4 13 3 -8 13 1 43 13 43 5 0 11 -4 14 -9z m286 -101
c-18 -12 -30 -13 -30 -2 0 4 10 9 22 9 18 2 20 0 8 -7z m-719 -27 c13 -16 12
-17 -3 -4 -10 7 -18 15 -18 17 0 8 8 3 21 -13z m491 -40 c-10 -4 -10 -8 0 -21
8 -10 9 -13 1 -9 -6 4 -14 1 -17 -5 -2 -7 -4 -4 -3 7 3 26 17 48 26 39 3 -4 0
-9 -7 -11z m-35 -40 c0 -15 -1 -20 -4 -10 -4 14 -8 16 -19 6 -7 -6 -12 -15 -9
-19 3 -5 -4 -6 -15 -3 -11 3 -20 10 -20 15 0 5 -4 6 -10 3 -19 -12 -10 6 16
30 32 30 59 20 61 -22z m-212 7 c-3 -5 -12 -10 -18 -10 -7 0 -6 4 3 10 19 12
23 12 15 0z m1142 -30 c-2 -24 -12 -26 -21 -4 -3 8 -2 12 4 9 6 -3 10 -1 10 4
0 6 2 11 4 11 3 0 4 -9 3 -20z m-1142 1 c3 -5 2 -12 -3 -15 -5 -3 -9 1 -9 9 0
17 3 19 12 6z m1055 -25 c0 -2 -8 -10 -17 -17 -16 -13 -17 -12 -4 4 13 16 21
21 21 13z m-1363 -12 c-3 -3 -12 -4 -19 -1 -8 3 -5 6 6 6 11 1 17 -2 13 -5z
m1107 -20 c3 -8 2 -12 -4 -9 -6 3 -10 1 -10 -4 0 -6 5 -11 11 -11 5 0 7 -5 3
-12 -6 -9 -9 -9 -12 0 -2 7 -8 10 -12 7 -5 -3 -7 -13 -3 -23 3 -10 -1 -8 -12
6 -13 18 -15 26 -6 35 9 9 11 7 6 -8 -7 -20 -6 -20 9 -1 9 11 16 23 16 28 0
13 7 9 14 -8z m271 6 c-3 -5 -12 -10 -18 -10 -7 0 -6 4 3 10 19 12 23 12 15 0z
m-652 -23 c-7 -12 69 -6 86 7 11 8 13 8 8 0 -7 -13 14 -25 53 -30 80 -11 100
-11 100 0 0 6 5 3 11 -7 10 -17 29 -15 29 4 0 6 -5 7 -12 3 -7 -5 -8 -3 -4 5
6 9 13 8 27 -5 19 -17 20 -17 13 2 -6 18 -6 18 9 -1 14 -18 14 -20 -4 -23 -10
-2 -19 -10 -19 -18 0 -8 -4 -14 -10 -14 -5 0 -6 7 -3 17 4 11 3 14 -5 9 -7 -4
-12 -18 -12 -31 0 -15 -7 -26 -20 -30 -11 -3 -20 -11 -20 -17 0 -5 -7 -7 -16
-4 -8 3 -12 2 -9 -3 3 -6 -8 -18 -25 -27 -16 -10 -30 -22 -30 -26 0 -4 -7 -8
-16 -8 -9 0 -12 -5 -8 -12 5 -8 2 -9 -9 -5 -11 4 -17 1 -17 -9 0 -8 -4 -12
-10 -9 -5 3 -10 1 -10 -5 0 -6 -4 -8 -10 -5 -5 3 -10 1 -10 -4 0 -6 -5 -11
-11 -11 -7 0 -19 -8 -28 -18 -9 -10 -35 -30 -59 -44 -23 -13 -39 -29 -35 -33
5 -5 1 -4 -9 3 -12 10 -18 10 -24 1 -5 -8 -3 -10 7 -4 8 5 11 5 7 1 -3 -4 -9
-6 -12 -4 -3 2 -13 -7 -21 -19 -9 -13 -22 -23 -28 -23 -7 0 -4 5 6 11 9 5 17
15 17 21 0 7 -6 6 -15 -2 -19 -16 -32 -5 -16 14 13 15 11 37 -4 49 -6 5 -4 7
5 4 8 -2 14 -10 12 -16 -1 -7 2 -10 7 -6 12 7 3 35 -12 35 -5 0 0 9 13 20 13
11 17 20 10 20 -9 0 -7 7 6 21 13 14 14 20 4 17 -8 -2 -14 4 -15 12 0 8 -8 14
-17 12 -11 -2 -16 4 -15 17 0 11 5 17 9 15 5 -3 5 -10 2 -16 -4 -7 -2 -8 5 -4
6 4 20 2 29 -6 15 -11 15 -11 5 3 -7 9 -9 20 -5 24 4 5 1 5 -6 1 -7 -4 -15 -1
-18 8 -3 9 -11 13 -18 9 -6 -3 -7 -2 -3 2 10 12 38 15 32 4 -4 -5 1 -6 9 -3
19 7 21 20 4 30 -7 5 -8 3 -3 -5 6 -10 3 -11 -14 -2 -25 14 -28 23 -4 14 11
-5 14 -3 8 6 -6 10 -3 11 15 1 20 -11 21 -10 11 8 -8 16 -7 19 6 18 9 0 18 5
20 12 3 8 -2 10 -14 6 -17 -5 -17 -5 0 6 9 6 15 15 12 20 -3 5 6 7 21 4 18 -3
23 -1 18 7 -5 8 -3 9 7 3 8 -4 21 -9 29 -11 11 -1 10 2 -4 12 -18 13 -18 14 2
12 11 0 18 -5 15 -10z m132 -5 c-3 -3 -11 0 -18 7 -9 10 -8 11 6 5 10 -3 15
-9 12 -12z m-867 -18 c0 -17 -3 -22 -8 -13 -5 6 -6 18 -3 26 8 19 11 16 11
-13z m220 -49 c-3 -3 -9 2 -12 12 -6 14 -5 15 5 6 7 -7 10 -15 7 -18z m1062
21 c0 -3 -4 -8 -10 -11 -5 -3 -10 -1 -10 4 0 6 5 11 10 11 6 0 10 -2 10 -4z
m-1260 -26 c15 -13 18 -20 9 -20 -11 0 -11 -2 1 -10 8 -5 11 -10 6 -10 -15 0
-46 32 -46 47 0 17 3 17 30 -7z m1195 -9 c3 -5 0 -13 -6 -17 -7 -4 -9 -3 -5 4
3 5 0 13 -6 15 -9 4 -10 6 -1 6 6 1 14 -3 18 -8z m-1155 -36 c-7 -8 -9 -15 -5
-15 5 0 6 -2 3 -5 -3 -3 -13 -3 -22 1 -15 6 -14 8 6 19 31 17 32 17 18 0z
m1131 -2 c13 -16 12 -17 -3 -4 -17 13 -22 21 -14 21 2 0 10 -8 17 -17z m-28
-12 c-5 -3 -8 -13 -8 -21 2 -20 -15 -41 -26 -34 -5 3 -9 0 -9 -5 0 -6 5 -11
12 -11 6 0 9 -2 6 -5 -3 -3 -13 -3 -22 1 -14 5 -14 9 -4 22 11 13 11 14 -2 7
-8 -5 -22 -10 -30 -12 -12 -1 -11 1 2 11 10 7 14 17 10 21 -4 5 5 1 20 -8 16
-10 29 -13 33 -7 3 6 0 10 -7 10 -9 0 -10 3 -2 8 6 4 10 15 9 24 -2 11 2 15
12 11 8 -3 11 -9 6 -12z m-763 -34 c9 3 7 -1 -5 -11 -13 -12 -16 -19 -8 -22 8
-4 5 -12 -9 -26 -16 -16 -22 -17 -31 -8 -9 10 -9 11 2 5 10 -6 12 -4 6 5 -6 9
-4 11 5 5 9 -6 11 -4 5 5 -6 9 -4 11 5 5 8 -5 11 -4 6 3 -3 6 -15 9 -26 7 -20
-4 -26 5 -12 19 4 4 8 12 8 17 1 5 2 12 3 16 0 3 9 -1 19 -9 9 -9 24 -13 32
-11z m997 1 c-3 -8 -6 -5 -6 6 -1 11 2 17 5 13 3 -3 4 -12 1 -19z m38 13 c3
-5 2 -12 -3 -15 -5 -3 -9 1 -9 9 0 17 3 19 12 6z m-1115 -43 c0 -15 4 -18 18
-13 13 5 14 4 5 -6 -16 -16 2 -50 22 -42 26 9 15 -57 -12 -74 -13 -8 -21 -18
-19 -22 3 -4 -7 -7 -22 -8 -22 -1 -23 0 -8 6 13 5 16 10 9 14 -6 4 -19 -1 -29
-10 -16 -16 -16 -16 -9 7 7 22 6 23 -9 11 -9 -7 -16 -9 -16 -3 0 5 8 13 17 16
12 5 14 9 5 18 -7 7 -12 16 -12 22 0 5 6 2 13 -7 11 -16 14 -15 42 9 21 18 23
21 5 10 -31 -20 -41 -20 -33 1 5 12 3 14 -7 8 -9 -5 -11 -4 -6 4 4 6 9 25 11
41 3 24 1 28 -13 23 -13 -4 -13 -2 3 10 24 18 45 11 45 -15z m1080 0 c0 7 5
12 11 12 5 0 7 -4 4 -10 -3 -5 0 -10 7 -10 9 0 9 -3 -2 -10 -14 -9 -7 -14 13
-11 5 1 6 -3 3 -8 -4 -5 -3 -11 1 -14 5 -2 2 -2 -4 -1 -7 2 -13 -1 -13 -6 0
-6 6 -10 13 -11 9 0 9 -2 -1 -6 -6 -2 -9 -10 -6 -15 4 -6 2 -8 -4 -4 -6 3 -13
2 -17 -4 -5 -9 6 -14 26 -12 3 1 6 -5 6 -13 0 -8 -7 -11 -16 -7 -14 5 -14 4
-1 -13 11 -14 12 -17 1 -11 -9 6 -12 5 -9 -5 3 -8 14 -13 24 -12 10 1 13 0 6
-3 -6 -3 -9 -11 -6 -16 4 -7 2 -8 -4 -4 -7 4 -12 3 -12 -2 0 -6 7 -12 15 -16
8 -3 15 -9 14 -13 -1 -4 0 -10 1 -13 8 -22 7 -47 -3 -59 -10 -11 -8 -13 11 -7
14 5 22 3 22 -4 0 -6 4 -8 10 -5 6 3 7 -1 4 -10 -6 -14 -8 -14 -20 2 -14 17
-14 17 -12 -2 2 -11 10 -26 18 -33 13 -11 13 -12 0 -10 -8 2 -14 -3 -13 -9 2
-7 -2 -13 -8 -13 -5 0 -8 -4 -5 -9 3 -5 -1 -12 -10 -15 -9 -3 -12 -11 -8 -18
5 -9 3 -9 -9 1 -16 13 -21 9 -18 -14 1 -5 -8 1 -19 14 -12 13 -19 30 -16 37 3
7 1 16 -4 19 -5 3 -7 -8 -5 -25 4 -27 2 -29 -15 -20 -16 9 -18 8 -13 -6 4 -11
3 -15 -5 -10 -6 4 -18 -4 -27 -17 -10 -15 -23 -23 -38 -21 -12 1 -25 3 -30 3
-4 1 -6 4 -5 9 3 7 -5 12 -23 12 -5 0 -8 -4 -4 -9 5 -10 -2 -18 -40 -47 -15
-11 -10 -10 17 2 20 10 35 21 32 26 -9 14 14 9 31 -8 11 -11 13 -20 5 -28 -5
-7 -7 -16 -4 -19 11 -10 13 -58 3 -51 -5 3 -9 -1 -9 -10 0 -8 6 -17 13 -20 6
-3 3 -4 -7 -3 -10 1 -21 -4 -24 -12 -2 -8 0 -11 5 -8 5 3 9 -3 9 -13 0 -18 -1
-18 -17 -2 -10 10 -13 21 -8 28 5 6 5 15 1 19 -4 5 -1 5 6 1 6 -4 12 -2 12 3
0 15 -11 13 -34 -4 -14 -11 -16 -15 -5 -15 12 0 12 -2 -1 -9 -8 -6 -18 -7 -22
-5 -4 3 -8 0 -8 -6 0 -7 8 -9 19 -5 22 7 40 -13 21 -25 -6 -4 -11 -10 -11 -14
1 -3 -1 -6 -4 -6 -3 0 -9 0 -15 0 -5 0 -10 7 -10 16 0 8 -4 12 -10 9 -5 -3
-10 -1 -10 6 0 7 -3 9 -6 6 -4 -4 1 -19 11 -34 15 -23 16 -26 2 -15 -18 15
-41 7 -31 -10 4 -7 2 -8 -5 -4 -6 4 -9 11 -6 16 7 11 -35 61 -46 55 -5 -4 -9
-1 -9 5 0 7 -5 10 -11 8 -18 -6 -10 -23 10 -23 11 0 23 -4 27 -8 11 -11 14
-38 3 -31 -5 3 -7 10 -4 15 4 5 -6 9 -20 9 -18 0 -24 -4 -19 -12 4 -8 3 -10
-2 -5 -5 5 -9 12 -9 15 0 4 -4 13 -9 20 -4 7 -2 20 6 30 11 15 11 16 -3 4 -15
-11 -17 -10 -15 13 1 19 5 23 19 19 9 -3 18 -1 19 5 4 29 2 34 -15 37 -9 1
-15 -1 -12 -6 6 -10 -23 -35 -32 -27 -3 4 2 9 11 13 9 3 13 10 10 15 -3 5 1
15 7 22 11 11 16 10 32 -6 20 -20 20 -20 38 1 21 27 31 28 22 5 -5 -15 -3 -15
11 2 15 17 17 18 12 2 -3 -10 -2 -16 3 -13 5 3 11 15 14 26 4 17 2 18 -14 9
-10 -5 -19 -7 -19 -4 0 3 0 8 0 12 0 4 8 8 18 8 9 0 16 5 15 12 -1 6 5 10 15
8 20 -3 44 14 37 25 -3 5 0 12 6 16 8 4 9 3 5 -4 -4 -7 -3 -12 1 -12 5 0 14 9
21 21 12 19 11 20 -10 15 -13 -3 -8 1 10 9 28 13 31 18 22 35 -7 13 -7 21 2
26 7 4 8 3 4 -4 -4 -7 -3 -12 3 -12 15 0 23 18 11 25 -6 4 -5 11 3 19 12 14
27 4 27 -19 0 -5 -5 -3 -10 5 -7 12 -9 10 -7 -8 2 -26 4 -27 22 -8 10 9 11 16
3 24 -6 6 -8 18 -4 27 5 15 9 15 24 4 15 -13 16 -12 3 4 -12 15 -11 20 5 39
11 12 14 18 8 15 -7 -4 -15 0 -18 9 -3 8 -2 13 3 9 5 -3 11 0 13 7 3 7 12 9
22 5 15 -6 16 -10 6 -22 -9 -10 -9 -15 -1 -15 10 0 15 13 12 33 0 4 3 7 8 7
11 0 25 -30 22 -47 -1 -7 6 -13 16 -13 15 0 16 2 3 10 -13 8 -13 10 -1 10 11
0 10 4 -4 13 -11 9 -15 19 -10 27 6 9 4 11 -5 5 -9 -6 -11 -4 -5 4 6 10 3 11
-11 3 -11 -5 -28 -6 -38 -2 -23 8 -10 17 21 15 12 -1 24 4 27 12 3 8 2 12 -3
8 -13 -8 -42 5 -35 17 3 5 11 5 19 -2 10 -8 15 -8 21 1 4 7 3 9 -4 5 -6 -3 -9
1 -7 11 1 10 -2 23 -7 30 -6 7 -2 16 12 26 14 9 17 17 11 22 -6 3 -14 -1 -17
-9 -3 -9 -10 -13 -16 -10 -5 3 -7 12 -4 20 3 8 1 14 -4 14 -5 0 -8 9 -7 20 1
18 2 18 19 3 11 -10 18 -12 18 -5z m-815 3 c-3 -5 -1 -12 5 -16 6 -4 7 -12 3
-18 -4 -7 -8 -16 -8 -21 0 -5 -6 -10 -13 -12 -7 -1 -8 0 -2 3 7 3 4 10 -7 19
-14 11 -14 13 -2 9 10 -4 16 0 16 10 0 8 -5 15 -11 15 -6 0 -4 5 4 10 19 12
23 12 15 1z m509 -49 c-1 -36 1 -41 25 -47 24 -6 24 -7 7 -17 -19 -11 -19 -11
-1 -24 10 -8 14 -14 8 -14 -7 0 -10 -12 -8 -30 2 -17 -2 -36 -10 -43 -11 -11
-11 -17 -2 -27 7 -7 7 -10 2 -7 -6 3 -18 -1 -28 -8 -18 -13 -19 -34 -2 -48 6
-5 0 -6 -12 -2 -15 4 -26 0 -36 -15 -12 -18 -15 -19 -21 -5 -4 11 -2 14 7 9 9
-5 9 -4 0 6 -19 20 -28 4 -15 -25 7 -15 8 -25 2 -25 -6 0 -10 7 -10 16 0 14
-3 14 -15 4 -8 -7 -15 -9 -15 -4 0 5 -5 2 -10 -6 -7 -11 -10 -11 -10 -2 0 7
-5 10 -10 7 -6 -4 -8 -10 -5 -15 3 -5 0 -12 -6 -16 -8 -4 -9 -3 -5 4 4 7 2 12
-3 12 -6 0 -11 5 -11 11 0 5 5 7 12 3 7 -5 8 -3 3 6 -6 10 -10 10 -19 -2 -10
-13 -13 -13 -25 -1 -18 20 -27 8 -10 -14 12 -16 12 -17 -2 -6 -9 7 -20 9 -24
5 -5 -4 2 11 14 33 13 22 16 32 8 21 -15 -18 -43 -14 -32 5 4 5 4 9 1 9 -3 0
-10 -9 -16 -20 -9 -16 -8 -18 5 -14 8 4 15 1 15 -7 0 -7 -3 -9 -7 -6 -3 4 -12
2 -20 -5 -11 -9 -13 -8 -11 2 2 8 -3 15 -9 16 -23 3 -24 4 -18 14 5 7 11 8 19
1 9 -7 12 -4 13 12 0 12 -1 16 -4 9 -4 -10 -8 -10 -21 0 -12 10 -14 10 -8 1 7
-13 -4 -17 -31 -14 -8 1 -10 -5 -7 -16 5 -15 4 -15 -4 -4 -7 10 -7 21 0 35 14
27 27 35 50 31 10 -2 16 0 13 5 -3 5 -15 7 -26 5 -17 -3 -19 -2 -9 10 6 8 18
11 26 8 8 -3 14 -2 12 3 -2 5 7 19 20 32 12 12 22 20 22 17 0 -3 6 0 14 7 8 7
11 17 8 22 -3 5 4 7 16 4 15 -4 19 -2 15 8 -3 8 -1 14 5 14 5 0 26 16 46 35
21 19 42 35 47 35 6 0 7 5 3 12 -4 6 -3 8 3 5 10 -7 56 26 48 34 -2 3 8 4 23
3 25 -1 27 -4 26 -42z m272 0 c4 -9 8 -20 9 -24 2 -5 3 -9 5 -10 6 -9 7 -37 0
-33 -4 3 -13 -2 -19 -9 -10 -11 -8 -17 6 -26 15 -9 15 -11 1 -6 -18 5 -42 -16
-31 -27 3 -4 -7 -7 -23 -6 -27 0 -28 1 -6 9 28 12 29 20 1 15 -16 -3 -18 -1
-10 9 6 7 7 17 3 21 -4 5 -1 4 7 0 11 -6 13 -4 8 8 -3 10 -2 17 3 17 14 0 8
23 -10 36 -11 9 -9 11 13 9 15 -2 29 1 33 6 3 5 1 9 -4 9 -6 0 -12 7 -15 14
-8 21 19 9 29 -12z m-964 11 c-6 -2 -9 -10 -6 -15 4 -7 2 -8 -5 -4 -13 9 -5
26 12 25 9 0 8 -2 -1 -6z m733 -3 c4 -6 -1 -7 -12 -4 -17 5 -17 5 0 -9 16 -14
16 -15 1 -21 -9 -4 -19 -4 -22 -1 -3 3 1 5 8 5 11 0 11 3 2 12 -7 7 -12 16
-12 20 0 11 28 10 35 -2z m190 0 c3 -5 1 -10 -4 -10 -6 0 -11 5 -11 10 0 6 2
10 4 10 3 0 8 -4 11 -10z m315 0 c0 -5 -5 -10 -11 -10 -5 0 -7 5 -4 10 3 6 8
10 11 10 2 0 4 -4 4 -10z m-1387 -35 c-3 -9 -8 -14 -10 -11 -3 3 -2 9 2 15 9
16 15 13 8 -4z m34 -127 c-3 -8 -6 -5 -6 6 -1 11 2 17 5 13 3 -3 4 -12 1 -19z
m271 -9 c-3 -8 -7 -3 -11 10 -4 17 -3 21 5 13 5 -5 8 -16 6 -23z m767 -19 c3
-6 -1 -13 -9 -16 -9 -3 -13 -10 -10 -15 3 -5 -3 -6 -12 -2 -11 4 -13 8 -6 11
7 2 12 10 12 18 0 16 16 19 25 4z m-605 -106 c0 -8 -19 -13 -24 -6 -3 5 1 9 9
9 8 0 15 -2 15 -3z m-655 -24 c-3 -5 -2 -10 3 -10 6 0 12 -6 15 -13 3 -8 -1
-14 -9 -14 -7 0 -11 4 -8 8 2 4 0 10 -6 14 -13 8 -13 25 1 25 5 0 7 -4 4 -10z
m175 -64 c0 -2 -8 -10 -17 -17 -16 -13 -17 -12 -4 4 13 16 21 21 21 13z m940
-16 c0 -5 -5 -10 -11 -10 -5 0 -7 5 -4 10 3 6 8 10 11 10 2 0 4 -4 4 -10z
m190 -1 c0 8 3 12 6 8 3 -3 1 -14 -5 -24 -6 -10 -11 -13 -11 -6 0 7 -7 10 -15
7 -13 -5 -13 -9 -3 -22 9 -11 9 -13 1 -9 -6 4 -14 3 -18 -2 -3 -6 -13 -7 -22
-4 -10 4 -14 2 -9 -5 3 -6 2 -13 -4 -17 -5 -3 -10 -11 -10 -16 0 -6 5 -7 12
-3 7 4 8 3 4 -4 -5 -9 -13 -9 -28 -1 -14 7 -17 14 -10 21 6 6 8 17 4 26 -4 11
-1 14 11 9 11 -4 22 2 33 18 9 14 20 23 24 20 5 -3 12 0 16 6 4 8 9 7 15 -2 7
-12 9 -12 9 0z m-293 -69 c2 -23 -12 -35 -22 -20 -4 6 -1 17 5 25 16 19 15 19
17 -5z m-229 -18 c-17 -22 -30 -32 -43 -32 -5 1 2 10 18 21 15 11 24 26 21 31
-4 7 -2 8 5 4 9 -6 9 -12 -1 -24z m-113 8 c-3 -5 3 -10 14 -10 12 0 21 5 21
12 0 6 3 8 6 5 4 -4 1 -13 -6 -22 -9 -11 -17 -12 -31 -4 -17 8 -18 29 -3 29 3
0 2 -4 -1 -10z m249 2 c3 -5 -1 -9 -9 -9 -8 0 -12 4 -9 9 3 4 7 8 9 8 2 0 6
-4 9 -8z m-199 -38 c-16 -12 -14 -13 11 -10 16 2 32 4 36 5 4 0 17 11 28 24
16 17 20 18 14 4 -3 -10 -3 -17 2 -16 22 4 44 -2 44 -11 0 -11 -22 -9 -30 2
-3 3 -10 -4 -17 -18 -8 -17 -8 -26 -1 -31 6 -3 8 -1 4 5 -3 6 -2 13 4 17 18
11 50 14 55 4 4 -5 1 -9 -6 -9 -8 0 -8 -4 1 -15 14 -16 10 -18 -14 -9 -9 3
-13 10 -10 15 3 5 0 9 -5 9 -13 0 -13 -3 -5 -24 3 -9 11 -13 17 -9 7 4 8 0 4
-11 -5 -13 1 -11 24 8 17 14 36 24 42 20 7 -3 3 2 -7 10 -11 9 -24 16 -29 16
-5 0 -4 6 2 13 6 8 9 16 6 18 -2 3 4 5 15 5 15 0 16 -4 9 -18 -7 -14 -6 -20 6
-24 9 -4 14 -13 11 -21 -3 -8 -1 -24 5 -35 6 -11 8 -22 5 -25 -8 -8 -36 17
-36 31 0 6 5 4 10 -4 6 -9 10 -10 10 -3 0 20 -16 23 -36 7 -10 -9 -13 -13 -6
-9 6 3 12 2 12 -4 0 -5 -17 -8 -38 -6 -29 2 -39 0 -39 -11 0 -9 6 -13 14 -10
8 4 11 1 8 -5 -4 -5 -12 -8 -18 -6 -15 5 -18 40 -4 49 7 4 3 6 -10 5 -12 0
-19 -5 -16 -10 7 -11 12 -59 5 -52 -3 3 -14 -2 -24 -12 -10 -9 -18 -11 -18 -5
0 6 5 12 12 14 6 2 13 15 15 29 2 18 1 20 -6 9 -5 -8 -7 -18 -5 -22 3 -4 -2
-8 -11 -8 -9 0 -13 5 -10 10 3 6 1 10 -5 10 -6 0 -8 -13 -6 -32 3 -18 3 -27 0
-20 -3 6 -12 12 -20 12 -9 0 -12 -5 -8 -12 4 -7 3 -8 -4 -4 -6 4 -9 13 -5 21
3 11 1 13 -10 9 -20 -7 -33 15 -17 29 10 9 12 8 7 -5 -8 -24 0 -23 13 1 10 20
-2 24 -27 8 -7 -5 -13 -4 -13 0 0 5 6 15 13 23 6 7 -3 3 -22 -10 -19 -13 -31
-19 -28 -13 4 6 2 13 -5 16 -7 2 -5 3 5 2 12 -2 17 4 18 23 1 15 1 31 0 36 -1
5 5 6 13 3 17 -7 31 8 17 18 -16 9 -51 -32 -44 -52 7 -19 5 -18 -17 11 -10 13
-10 17 -2 12 11 -6 17 5 13 27 0 4 2 6 7 6 19 -3 33 2 27 11 -4 7 3 7 20 0 20
-8 29 -6 43 8 9 10 19 14 21 8 2 -5 -4 -15 -14 -22z m-85 16 c0 -5 -5 -10 -11
-10 -5 0 -7 5 -4 10 3 6 8 10 11 10 2 0 4 -4 4 -10z m237 -12 c2 -18 0 -20 -7
-8 -12 18 -13 30 -2 30 4 0 9 -10 9 -22z m95 -20 c-7 -7 -12 -8 -12 -2 0 14
12 26 19 19 2 -3 -1 -11 -7 -17z m-72 -22 c0 -3 -4 -8 -10 -11 -5 -3 -10 -1
-10 4 0 6 5 11 10 11 6 0 10 -2 10 -4z m-240 -86 c0 -5 -4 -10 -10 -10 -5 0
-10 5 -10 10 0 6 5 10 10 10 6 0 10 -4 10 -10z m220 6 c0 -3 -4 -8 -10 -11 -5
-3 -10 -1 -10 4 0 6 5 11 10 11 6 0 10 -2 10 -4z m40 0 c0 -3 -4 -8 -10 -11
-5 -3 -10 -1 -10 4 0 6 5 11 10 11 6 0 10 -2 10 -4z m-230 -41 c0 -12 -19 -12
-23 0 -4 9 -1 12 9 8 7 -3 14 -7 14 -8z m-215 -24 c3 -6 -4 -9 -15 -8 -11 1
-20 5 -20 9 0 11 28 10 35 -1z m836 -24 c-10 -9 -11 -8 -5 6 3 10 9 15 12 12
3 -3 0 -11 -7 -18z m15 -53 c-1 -8 -6 -17 -11 -21 -4 -4 -5 -2 -1 5 4 6 2 12
-3 12 -6 0 -11 4 -11 8 0 5 6 9 14 9 7 0 13 -6 12 -13z m-441 -44 c3 -6 -1 -7
-9 -4 -18 7 -21 14 -7 14 6 0 13 -4 16 -10z m399 1 c3 -5 0 -14 -8 -20 -10 -9
-17 -7 -27 6 -9 11 -10 14 -1 9 6 -4 12 -2 12 3 0 13 17 14 24 2z m-307 -18
c0 -7 -4 -13 -8 -13 -4 0 -9 6 -12 13 -3 8 0 14 7 14 7 0 13 -6 13 -14z"/>
<path d="M1073 1610 c1 -11 5 -20 9 -20 11 0 10 28 -1 35 -6 3 -9 -4 -8 -15z"/>
<path d="M1020 1600 c0 -5 5 -10 11 -10 5 0 7 5 4 10 -3 6 -8 10 -11 10 -2 0
-4 -4 -4 -10z"/>
<path d="M1142 1587 c-7 -8 -7 -19 2 -36 11 -21 14 -21 20 -6 3 10 2 23 -4 30
-5 6 -7 15 -3 18 3 4 4 7 1 7 -3 0 -10 -6 -16 -13z m16 -32 c-3 -3 -9 2 -12
12 -6 14 -5 15 5 6 7 -7 10 -15 7 -18z"/>
<path d="M1110 1546 c0 -2 7 -7 16 -10 8 -3 12 -2 9 4 -6 10 -25 14 -25 6z"/>
<path d="M1090 1470 c0 -5 5 -10 11 -10 5 0 7 5 4 10 -3 6 -8 10 -11 10 -2 0
-4 -4 -4 -10z"/>
<path d="M701 1564 c0 -11 3 -14 6 -6 3 7 2 16 -1 19 -3 4 -6 -2 -5 -13z"/>
<path d="M814 1568 c-4 -6 -3 -13 3 -15 6 -2 18 -10 29 -17 17 -13 17 -15 0
-40 -15 -24 -20 -25 -34 -14 -13 11 -14 11 -8 -1 6 -9 5 -12 -5 -9 -8 3 -13
11 -11 18 2 11 -1 10 -15 0 -28 -22 -29 -24 -11 -17 26 9 29 -4 5 -25 l-22
-19 28 17 c20 12 30 14 41 5 10 -8 17 -6 31 9 10 11 21 17 25 15 4 -3 13 2 20
10 10 12 8 13 -9 10 -18 -3 -20 0 -15 21 4 15 2 24 -6 24 -6 0 -8 4 -5 10 4 6
-1 7 -11 3 -11 -4 -15 -3 -10 5 3 6 2 13 -3 16 -5 4 -13 1 -17 -6z m46 -81 c0
-2 -9 -12 -19 -21 -14 -13 -21 -14 -27 -5 -4 7 -3 10 3 6 6 -4 16 0 23 8 12
14 20 19 20 12z"/>
<path d="M745 1540 c-3 -6 1 -7 9 -4 18 7 21 14 7 14 -6 0 -13 -4 -16 -10z"/>
<path d="M816 1525 c4 -8 11 -15 16 -15 6 0 5 6 -2 15 -7 8 -14 15 -16 15 -2
0 -1 -7 2 -15z"/>
<path d="M679 1528 c-5 -18 -6 -38 -1 -34 7 8 12 36 6 36 -2 0 -4 -1 -5 -2z"/>
<path d="M690 1481 c0 -6 4 -13 10 -16 6 -3 7 1 4 9 -7 18 -14 21 -14 7z"/>
<path d="M686 1438 c3 -4 9 -8 15 -8 5 0 9 4 9 8 0 5 -7 9 -15 9 -8 0 -12 -4
-9 -9z"/>
<path d="M560 1331 c0 -6 4 -13 10 -16 6 -3 7 1 4 9 -7 18 -14 21 -14 7z"/>
<path d="M429 1313 c-12 -14 -12 -16 0 -8 11 6 13 4 8 -8 -9 -23 0 -21 13 2
13 25 -3 36 -21 14z"/>
<path d="M542 1245 c2 -12 -2 -19 -10 -17 -8 1 -11 -2 -7 -8 5 -8 11 -8 19 -1
7 6 15 8 19 5 3 -3 10 4 17 15 7 14 7 21 0 21 -5 0 -10 -8 -10 -17 -1 -16 -2
-16 -16 2 l-16 20 4 -20z"/>
<path d="M413 1215 c0 -8 3 -13 5 -10 3 3 12 -1 20 -8 13 -11 14 -9 1 11 -16
26 -26 28 -26 7z"/>
<path d="M496 1165 c4 -8 11 -15 16 -15 6 0 5 6 -2 15 -7 8 -14 15 -16 15 -2
0 -1 -7 2 -15z"/>
<path d="M655 1569 c-4 -6 -5 -12 -2 -15 2 -3 7 2 10 11 7 17 1 20 -8 4z"/>
<path d="M666 1395 c4 -10 0 -13 -16 -10 -18 4 -20 2 -9 -11 10 -13 14 -12 30
2 23 20 23 20 5 27 -10 4 -13 1 -10 -8z"/>
<path d="M949 1248 c-11 -20 -10 -21 3 -11 8 7 18 10 22 6 4 -4 4 0 0 10 -8
22 -11 22 -25 -5z"/>
<path d="M992 1258 c10 -8 16 -17 13 -19 -2 -3 8 -5 23 -5 15 -1 35 -4 45 -8
11 -5 17 -4 17 4 0 6 -4 8 -10 5 -5 -3 -10 -2 -10 3 0 5 -10 9 -22 8 -13 -1
-34 4 -48 12 -22 12 -23 12 -8 0z"/>
<path d="M825 1250 c-3 -5 -1 -10 4 -10 6 0 11 5 11 10 0 6 -2 10 -4 10 -3 0
-8 -4 -11 -10z"/>
<path d="M853 1247 c-3 -6 -1 -7 5 -3 7 4 12 2 12 -4 0 -6 5 -8 10 -5 6 3 10
10 10 14 0 11 -30 9 -37 -2z"/>
<path d="M906 1243 c-6 -14 -5 -15 5 -6 7 7 10 15 7 18 -3 3 -9 -2 -12 -12z"/>
<path d="M1115 1224 c18 -14 40 -13 40 1 0 5 -13 10 -28 10 -25 1 -26 -1 -12
-11z"/>
<path d="M838 1223 c7 -3 16 -2 19 1 4 3 -2 6 -13 5 -11 0 -14 -3 -6 -6z"/>
<path d="M815 1201 c-3 -5 0 -13 6 -17 7 -4 9 -3 5 4 -3 5 0 13 6 15 9 4 10 6
1 6 -6 1 -14 -3 -18 -8z"/>
<path d="M1055 1200 c3 -5 8 -10 11 -10 2 0 4 5 4 10 0 6 -5 10 -11 10 -5 0
-7 -4 -4 -10z"/>
<path d="M1116 1182 c-3 -4 4 -9 15 -9 23 -2 25 3 4 10 -8 4 -16 3 -19 -1z"/>
<path d="M771 994 c0 -11 3 -14 6 -6 3 7 2 16 -1 19 -3 4 -6 -2 -5 -13z"/>
<path d="M761 938 c-23 -28 -23 -29 -3 -17 19 12 37 38 30 44 -2 1 -14 -11
-27 -27z"/>
<path d="M523 1105 c0 -8 7 -15 15 -15 12 0 12 3 2 15 -7 8 -13 15 -15 15 -1
0 -2 -7 -2 -15z"/>
<path d="M469 1068 c-6 -26 -5 -38 2 -38 6 0 7 -4 4 -10 -10 -16 1 -11 16 7
12 14 12 16 0 8 -11 -6 -13 -4 -8 8 3 9 2 19 -3 22 -6 4 -10 5 -11 3z"/>
<path d="M506 995 c-2 -7 1 -18 7 -25 10 -10 7 -10 -11 -1 -18 10 -27 10 -38
1 -17 -15 -9 -31 11 -23 8 3 15 0 15 -6 0 -22 44 18 47 42 3 25 -22 34 -31 12z
m-12 -33 c2 -4 -4 -8 -14 -8 -10 0 -16 4 -14 8 3 4 9 8 14 8 5 0 11 -4 14 -8z"/>
<path d="M1547 1069 c7 -9 9 -20 5 -25 -4 -4 1 -2 11 5 9 7 17 16 17 19 0 3
-3 2 -7 -1 -3 -4 -13 -1 -22 6 -14 10 -14 10 -4 -4z"/>
<path d="M1570 1004 c0 -8 5 -12 10 -9 6 4 8 11 5 16 -9 14 -15 11 -15 -7z"/>
<path d="M1510 822 c0 -4 10 -9 22 -9 18 -2 20 0 8 7 -18 12 -30 13 -30 2z"/>
<path d="M1609 823 c-1 -5 -1 -11 0 -15 0 -5 -3 -8 -9 -8 -5 0 -10 -5 -10 -12
0 -9 3 -9 12 0 11 11 20 42 12 42 -2 0 -5 -3 -5 -7z"/>
<path d="M1513 765 c0 -8 4 -12 9 -9 5 3 6 10 3 15 -9 13 -12 11 -12 -6z"/>
<path d="M1601 752 c9 -4 15 -15 13 -24 -1 -10 2 -18 7 -18 18 0 2 45 -17 47
-15 2 -16 1 -3 -5z"/>
<path d="M1435 721 c-3 -6 -3 -11 0 -11 4 0 -3 -12 -13 -28 -17 -23 -18 -30
-7 -45 11 -16 13 -16 19 -2 3 9 2 13 -3 10 -5 -3 -12 -1 -16 5 -3 5 -1 10 4
10 6 0 11 7 11 15 0 8 5 15 11 15 5 0 7 -5 3 -12 -4 -6 -3 -8 3 -5 10 6 11 42
1 52 -3 4 -9 2 -13 -4z"/>
<path d="M1476 721 c-3 -5 2 -15 12 -22 15 -12 16 -12 5 2 -7 9 -10 19 -6 22
3 4 4 7 0 7 -3 0 -8 -4 -11 -9z"/>
<path d="M1580 720 c0 -5 5 -10 11 -10 5 0 7 5 4 10 -3 6 -8 10 -11 10 -2 0
-4 -4 -4 -10z"/>
<path d="M1576 688 c3 -5 10 -6 15 -3 5 3 6 -1 3 -9 -9 -23 3 -20 16 4 9 17 8
20 -14 18 -13 -1 -22 -6 -20 -10z"/>
<path d="M1563 665 c0 -8 4 -12 9 -9 5 3 6 10 3 15 -9 13 -12 11 -12 -6z"/>
<path d="M1453 654 c-3 -7 -3 -19 0 -26 3 -7 6 -3 6 10 1 13 5 21 10 17 5 -3
12 -2 15 3 3 5 -2 9 -10 9 -9 0 -18 -6 -21 -13z"/>
<path d="M1325 600 c-3 -5 -1 -10 4 -10 6 0 11 5 11 10 0 6 -2 10 -4 10 -3 0
-8 -4 -11 -10z"/>
<path d="M1390 571 c-6 -12 -7 -21 -1 -21 10 0 24 30 17 37 -2 3 -9 -5 -16
-16z"/>
<path d="M1359 568 c-6 -21 -5 -38 1 -38 5 0 8 9 7 20 -1 17 -5 26 -8 18z"/>
<path d="M1320 540 c-9 -6 -10 -10 -3 -10 6 0 15 5 18 10 8 12 4 12 -15 0z"/>
<path d="M1406 527 c5 -14 2 -16 -12 -11 -16 5 -16 4 -4 -5 20 -14 39 4 21 22
-10 10 -11 9 -5 -6z"/>
<path d="M1240 520 c-12 -7 -10 -9 8 -7 12 0 22 5 22 9 0 11 -12 10 -30 -2z"/>
<path d="M1355 500 c-3 -5 -1 -10 4 -10 6 0 11 5 11 10 0 6 -2 10 -4 10 -3 0
-8 -4 -11 -10z"/>
<path d="M1230 459 c0 -5 5 -7 10 -4 6 3 10 8 10 11 0 2 -4 4 -10 4 -5 0 -10
-5 -10 -11z"/>
<path d="M1270 430 c0 -5 5 -10 10 -10 6 0 10 5 10 10 0 6 -4 10 -10 10 -5 0
-10 -4 -10 -10z"/>
<path d="M1350 420 c-12 -7 -12 -11 -2 -20 6 -5 10 -7 7 -4 -3 4 0 13 6 21 13
15 10 16 -11 3z"/>
<path d="M1258 971 c8 -5 13 -11 13 -15 -3 -19 0 -26 11 -26 9 0 9 3 0 12 -7
7 -8 16 -2 23 6 7 2 11 -13 12 -15 2 -18 0 -9 -6z"/>
<path d="M1258 918 c10 -13 11 -22 2 -38 -6 -12 -9 -24 -6 -28 11 -10 31 18
31 43 1 13 -1 22 -4 20 -2 -3 -11 1 -20 8 -14 10 -14 10 -3 -5z m13 -51 c-10
-9 -11 -8 -5 6 3 10 9 15 12 12 3 -3 0 -11 -7 -18z"/>
<path d="M1230 835 c0 -7 30 -13 34 -7 3 4 -4 9 -15 9 -10 1 -19 0 -19 -2z"/>
<path d="M1220 800 c0 -5 -8 -7 -17 -4 -14 5 -15 4 -4 -4 7 -5 10 -16 7 -23
-4 -8 -1 -6 7 3 8 10 17 15 21 11 4 -4 4 0 0 10 -7 19 -14 22 -14 7z"/>
<path d="M915 791 c-3 -5 -2 -12 3 -15 5 -3 9 1 9 9 0 17 -3 19 -12 6z"/>
<path d="M1139 757 c6 -8 7 -18 3 -22 -4 -5 -1 -5 6 -1 10 6 10 11 1 22 -6 8
-14 14 -16 14 -3 0 0 -6 6 -13z"/>
<path d="M1050 751 c0 -5 5 -13 10 -16 6 -3 10 -2 10 4 0 5 -4 13 -10 16 -5 3
-10 2 -10 -4z"/>
<path d="M1100 742 c0 -5 7 -9 15 -9 8 0 15 4 15 9 0 4 -7 8 -15 8 -8 0 -15
-4 -15 -8z"/>
<path d="M1525 1010 c-4 -6 -10 -8 -13 -6 -4 2 -8 -9 -8 -25 -1 -16 3 -29 9
-29 6 0 7 3 3 7 -3 4 4 13 16 20 13 7 17 12 9 13 -7 0 -11 6 -7 15 6 17 0 20
-9 5z"/>
<path d="M1485 929 c-3 -4 2 -6 10 -5 21 3 28 13 10 13 -9 0 -18 -4 -20 -8z"/>
<path d="M1480 599 c0 -5 5 -7 10 -4 6 3 10 8 10 11 0 2 -4 4 -10 4 -5 0 -10
-5 -10 -11z"/>
<path d="M1443 583 c4 -3 1 -13 -6 -22 -11 -14 -10 -14 5 -2 16 12 16 31 1 31
-4 0 -3 -3 0 -7z"/>
<path d="M1011 510 c-13 -11 -19 -20 -13 -20 10 0 42 27 42 36 0 7 -4 5 -29
-16z"/>
<path d="M906 482 c-2 -4 4 -8 14 -8 10 0 16 4 14 8 -3 4 -9 8 -14 8 -5 0 -11
-4 -14 -8z"/>
<path d="M950 390 c0 -5 5 -10 11 -10 5 0 7 5 4 10 -3 6 -8 10 -11 10 -2 0 -4
-4 -4 -10z"/>
<path d="M666 1875 c-10 -7 -15 -18 -12 -24 10 -16 35 -1 33 20 -1 10 -1 19
-2 19 0 0 -8 -7 -19 -15z"/>
<path d="M1015 1880 c-3 -5 -1 -10 4 -10 6 0 11 5 11 10 0 6 -2 10 -4 10 -3 0
-8 -4 -11 -10z"/>
<path d="M535 1840 c-3 -5 -1 -10 4 -10 6 0 11 5 11 10 0 6 -2 10 -4 10 -3 0
-8 -4 -11 -10z"/>
<path d="M566 1841 c-3 -5 0 -14 7 -19 10 -8 13 -6 14 9 2 19 -11 26 -21 10z"/>
<path d="M1317 1772 c-14 -15 -14 -19 -3 -19 8 0 17 9 19 19 3 10 4 18 3 18
-2 0 -10 -8 -19 -18z"/>
<path d="M1390 1631 c0 -6 4 -13 10 -16 6 -3 7 1 4 9 -7 18 -14 21 -14 7z"/>
<path d="M1400 1438 c0 -4 6 -8 14 -8 8 0 17 4 20 8 2 4 -4 8 -15 8 -10 0 -19
-4 -19 -8z"/>
<path d="M1397 1402 c-16 -18 -14 -32 6 -32 5 0 7 7 3 15 -3 8 2 19 12 24 9 6
12 11 6 11 -6 0 -18 -8 -27 -18z"/>
<path d="M1686 1402 c-3 -5 1 -9 9 -9 8 0 12 4 9 9 -3 4 -7 8 -9 8 -2 0 -6 -4
-9 -8z"/>
<path d="M1379 1343 c-13 -16 -12 -17 4 -4 9 7 17 15 17 17 0 8 -8 3 -21 -13z"/>
<path d="M121 1324 c0 -11 3 -14 6 -6 3 7 2 16 -1 19 -3 4 -6 -2 -5 -13z"/>
<path d="M1830 1316 c0 -2 8 -10 18 -17 15 -13 16 -12 3 4 -13 16 -21 21 -21
13z"/>
<path d="M1810 1281 c0 -6 5 -13 10 -16 6 -3 10 1 10 9 0 9 -4 16 -10 16 -5 0
-10 -4 -10 -9z"/>
<path d="M1845 1260 c3 -5 8 -10 11 -10 2 0 4 5 4 10 0 6 -5 10 -11 10 -5 0
-7 -4 -4 -10z"/>
<path d="M1866 1245 c-9 -26 -7 -32 5 -12 6 10 9 21 6 23 -2 3 -7 -2 -11 -11z"/>
<path d="M1875 1130 c4 -13 1 -22 -9 -26 -9 -3 -14 -10 -11 -14 3 -4 -2 -13
-10 -20 -12 -10 -13 -16 -4 -26 13 -16 29 -18 29 -4 0 6 -4 9 -9 8 -5 -2 -8 2
-7 7 0 6 4 9 9 8 4 -2 6 0 6 5 -3 19 2 33 10 28 5 -4 8 5 6 20 -2 18 1 24 12
20 8 -3 11 -1 8 4 -3 6 -13 10 -21 10 -11 0 -13 -6 -9 -20z"/>
<path d="M1822 1017 c-8 -10 -6 -13 9 -14 19 -2 26 11 10 21 -5 3 -14 0 -19
-7z"/>
<path d="M170 919 c0 -5 -5 -7 -12 -3 -6 4 -8 3 -4 -4 3 -5 0 -13 -6 -15 -9
-4 -8 -6 2 -6 8 -1 21 8 28 19 7 12 8 20 2 20 -5 0 -10 -5 -10 -11z"/>
<path d="M1830 901 c0 -7 -4 -10 -8 -7 -5 3 -9 -1 -9 -9 0 -8 4 -15 8 -15 9 0
21 31 14 38 -3 3 -5 0 -5 -7z"/>
<path d="M1835 860 c-3 -5 -1 -10 4 -10 6 0 11 5 11 10 0 6 -2 10 -4 10 -3 0
-8 -4 -11 -10z"/>
<path d="M1846 801 c-3 -5 1 -11 9 -15 8 -3 17 -1 20 5 4 5 12 6 18 3 7 -4 9
-3 4 1 -11 13 -45 16 -51 6z"/>
<path d="M1900 719 c0 -5 5 -7 10 -4 6 3 10 8 10 11 0 2 -4 4 -10 4 -5 0 -10
-5 -10 -11z"/>
<path d="M238 653 c7 -3 16 -2 19 1 4 3 -2 6 -13 5 -11 0 -14 -3 -6 -6z"/>
<path d="M1859 613 c-10 -11 -10 -14 -1 -9 7 4 12 2 12 -6 0 -9 3 -9 10 2 20
32 3 43 -21 13z"/>
<path d="M610 521 c0 -7 -4 -10 -8 -7 -4 2 -8 -8 -7 -23 0 -17 5 -27 15 -27 9
0 16 8 16 17 0 11 -6 15 -16 11 -13 -5 -13 -3 -1 11 8 10 11 20 7 24 -3 3 -6
1 -6 -6z"/>
<path d="M1721 474 c0 -11 3 -14 6 -6 3 7 2 16 -1 19 -3 4 -6 -2 -5 -13z"/>
<path d="M627 404 c6 -15 23 -19 23 -5 0 5 -7 11 -14 14 -10 4 -13 1 -9 -9z"/>
<path d="M1566 313 c-6 -14 -5 -15 5 -6 7 7 10 15 7 18 -3 3 -9 -2 -12 -12z"/>
<path d="M1590 310 c-6 -11 -8 -20 -6 -20 3 0 10 9 16 20 6 11 8 20 6 20 -3 0
-10 -9 -16 -20z"/>
<path d="M1224 182 c3 -5 1 -12 -6 -14 -8 -3 -9 -6 -1 -11 6 -4 13 0 17 8 3 8
0 17 -6 21 -6 4 -8 3 -4 -4z"/>
<path d="M1080 166 c0 -2 7 -7 16 -10 8 -3 12 -2 9 4 -6 10 -25 14 -25 6z"/>
<path d="M1421 162 c-1 -7 -5 -11 -10 -7 -5 3 -12 1 -15 -4 -9 -14 7 -21 23
-11 7 4 11 14 8 21 -4 11 -6 11 -6 1z"/>
<path d="M1055 149 c-4 -6 -5 -12 -2 -15 2 -3 7 2 10 11 7 17 1 20 -8 4z"/>
<path d="M960 100 c-9 -6 -10 -10 -3 -10 6 0 15 5 18 10 8 12 4 12 -15 0z"/>
</g>
</svg>
